# xmcd
#
# Track frame offsets: 
#        150
#        14477
#        27240
#        38729
#        54004
#        64924
#        77632
#        89521
#        101666
#        112206
#        126399
#        136385
#
# Disc length: 2007 seconds
#
# Revision: 0
# Processed by: cddbd v1.5.2PL0 Copyright (c) Steve Scherf et al.
# Submitted via: ExactAudioCopy v0.95a5
#
DISCID=a207d50c
DTITLE=The Alkalai Flats - Heartaches and Honky Tonks
DYEAR=2007
DGENRE=Bluegrass
TTITLE0=Heartaches By The Number
TTITLE1=You'll Be Rewarded Over There
TTITLE2=I'm Just Too Lazy
TTITLE3=Number Three
TTITLE4=Salt Wells
TTITLE5=Barred From Every Honky Tonk
TTITLE6=Lula Walls
TTITLE7=Jesus Don't Come Knockin
TTITLE8=Why Baby Why
TTITLE9=You Hug The Bottle
TTITLE10=Gabbs Valley
TTITLE11=Navajo Rug
EXTD=
EXTT0=
EXTT1=
EXTT2=
EXTT3=
EXTT4=
EXTT5=
EXTT6=
EXTT7=
EXTT8=
EXTT9=
EXTT10=
EXTT11=
PLAYORDER=
